<svg id="svg" version="1.1" xmlns="http://www.w3.org/2000/svg" xmlns:xlink="http://www.w3.org/1999/xlink" width="400" height="400" viewBox="0, 0, 400,400"><g id="svgg"><path id="path0" d="M238.489 151.423 C 237.509 152.109,237.086 169.796,237.993 172.181 L 238.386 173.214 248.293 173.107 L 258.200 173.000 258.307 162.400 C 258.404 152.789,258.350 151.753,257.731 151.300 C 256.624 150.490,239.666 150.599,238.489 151.423 M141.283 152.015 C 140.356 153.501,140.666 171.866,141.635 172.835 C 142.498 173.698,158.458 174.014,160.574 173.210 L 161.600 172.820 161.600 162.490 C 161.600 154.989,161.469 152.029,161.120 151.680 C 160.160 150.720,141.900 151.029,141.283 152.015 M303.800 209.156 C 302.700 209.778,298.380 212.224,294.200 214.592 C 287.359 218.467,277.291 223.699,273.600 225.299 C 271.526 226.197,269.157 227.226,267.800 227.818 C 262.907 229.953,252.025 233.444,245.200 235.068 C 242.890 235.617,240.100 236.320,239.000 236.630 C 237.900 236.939,235.740 237.389,234.200 237.629 C 232.660 237.868,230.410 238.239,229.200 238.453 C 215.065 240.948,189.491 241.320,175.400 239.235 C 167.270 238.033,156.057 235.630,149.800 233.751 C 131.302 228.194,115.308 221.186,98.686 211.352 C 92.825 207.885,93.200 207.596,93.200 215.578 C 93.200 221.051,93.208 221.099,94.294 222.185 C 95.250 223.141,103.307 229.107,105.119 230.200 C 105.484 230.420,106.956 231.335,108.391 232.233 C 115.590 236.738,129.009 243.909,134.411 246.138 C 135.395 246.544,136.740 247.107,137.400 247.390 C 145.828 250.999,149.850 252.477,156.800 254.519 C 158.010 254.875,159.900 255.441,161.000 255.779 C 162.100 256.116,163.810 256.553,164.800 256.749 C 165.790 256.945,168.040 257.396,169.800 257.751 C 175.810 258.965,177.005 259.160,182.800 259.880 C 189.963 260.769,210.372 260.884,215.200 260.062 C 216.850 259.782,219.550 259.460,221.200 259.349 C 222.850 259.237,224.560 258.999,225.000 258.818 C 225.440 258.638,227.060 258.278,228.600 258.019 C 237.119 256.584,244.106 254.554,255.600 250.176 C 270.193 244.618,287.952 234.690,302.700 223.846 L 306.000 221.419 306.000 214.710 C 306.000 211.019,305.955 208.006,305.900 208.013 C 305.845 208.019,304.900 208.534,303.800 209.156 " stroke="none" fill="#f8f8f8" fill-rule="evenodd"></path><path id="path1" d="M181.600 5.600 C 181.600 5.835,180.208 6.000,178.224 6.000 C 176.367 6.000,174.736 6.180,174.600 6.400 C 174.464 6.620,173.013 6.800,171.376 6.800 C 169.659 6.800,168.400 6.969,168.400 7.200 C 168.400 7.420,167.511 7.600,166.424 7.600 C 165.337 7.600,164.352 7.754,164.236 7.941 C 164.120 8.129,162.544 8.406,160.734 8.557 C 158.925 8.708,157.254 8.984,157.022 9.171 C 156.790 9.357,155.835 9.620,154.900 9.755 C 150.614 10.373,149.981 10.507,149.774 10.842 C 149.652 11.039,149.023 11.200,148.376 11.200 C 147.729 11.200,147.200 11.380,147.200 11.600 C 147.200 11.820,146.581 12.000,145.824 12.000 C 145.067 12.000,144.336 12.180,144.200 12.400 C 144.064 12.620,143.513 12.800,142.976 12.800 C 142.439 12.800,142.000 12.980,142.000 13.200 C 142.000 13.420,141.471 13.600,140.824 13.600 C 140.177 13.600,139.536 13.780,139.400 14.000 C 139.264 14.220,138.634 14.400,138.000 14.400 C 137.366 14.400,136.736 14.580,136.600 14.800 C 136.464 15.020,136.003 15.200,135.576 15.200 C 135.149 15.200,134.800 15.380,134.800 15.600 C 134.800 15.820,134.260 16.000,133.600 16.000 C 132.940 16.000,132.400 16.180,132.400 16.400 C 132.400 16.620,131.860 16.800,131.200 16.800 C 130.540 16.800,130.000 16.980,130.000 17.200 C 130.000 17.420,129.561 17.600,129.024 17.600 C 128.487 17.600,127.936 17.780,127.800 18.000 C 127.664 18.220,127.203 18.400,126.776 18.400 C 126.349 18.400,126.000 18.580,126.000 18.800 C 126.000 19.020,125.550 19.200,125.000 19.200 C 124.450 19.200,124.000 19.380,124.000 19.600 C 124.000 19.820,123.640 20.000,123.200 20.000 C 122.760 20.000,122.400 20.180,122.400 20.400 C 122.400 20.620,122.040 20.800,121.600 20.800 C 121.160 20.800,120.800 20.980,120.800 21.200 C 120.800 21.420,120.361 21.600,119.824 21.600 C 119.287 21.600,118.736 21.780,118.600 22.000 C 118.464 22.220,118.003 22.400,117.576 22.400 C 117.149 22.400,116.800 22.580,116.800 22.800 C 116.800 23.020,116.440 23.200,116.000 23.200 C 115.560 23.200,115.200 23.380,115.200 23.600 C 115.200 23.820,114.840 24.000,114.400 24.000 C 113.960 24.000,113.600 24.180,113.600 24.400 C 113.600 24.620,113.335 24.800,113.011 24.800 C 112.272 24.800,107.847 26.857,107.667 27.284 C 107.593 27.458,107.188 27.600,106.767 27.600 C 106.345 27.600,106.000 27.780,106.000 28.000 C 106.000 28.220,105.764 28.400,105.475 28.400 C 105.187 28.400,104.564 28.760,104.092 29.200 C 103.620 29.640,102.956 30.000,102.617 30.000 C 102.278 30.000,102.000 30.180,102.000 30.400 C 102.000 30.620,101.640 30.800,101.200 30.800 C 100.760 30.800,100.400 30.980,100.400 31.200 C 100.400 31.420,100.164 31.600,99.875 31.600 C 99.587 31.600,98.964 31.960,98.492 32.400 C 98.020 32.840,97.396 33.200,97.105 33.200 C 96.814 33.200,96.317 33.560,96.000 34.000 C 95.683 34.440,95.103 34.800,94.712 34.800 C 94.320 34.800,94.000 34.980,94.000 35.200 C 94.000 35.420,93.770 35.600,93.488 35.600 C 93.207 35.600,92.717 35.960,92.400 36.400 C 92.083 36.840,91.543 37.200,91.200 37.200 C 90.857 37.200,90.317 37.560,90.000 38.000 C 89.683 38.440,89.175 38.800,88.872 38.800 C 88.569 38.800,87.817 39.340,87.200 40.000 C 86.583 40.660,85.791 41.200,85.440 41.200 C 85.088 41.200,84.800 41.358,84.800 41.551 C 84.800 41.745,84.237 42.136,83.548 42.421 C 82.860 42.707,81.878 43.358,81.366 43.870 C 80.855 44.381,80.270 44.800,80.066 44.800 C 79.863 44.800,78.955 45.520,78.048 46.400 C 77.141 47.280,76.298 48.000,76.174 48.000 C 76.050 48.000,75.071 48.900,74.000 50.000 C 72.929 51.100,71.858 52.000,71.621 52.000 C 70.752 52.000,51.200 71.569,51.200 72.438 C 51.200 72.684,50.300 73.730,49.200 74.763 C 48.100 75.796,47.200 76.766,47.200 76.920 C 47.200 77.073,46.480 77.941,45.600 78.848 C 44.720 79.755,44.000 80.663,44.000 80.866 C 44.000 81.070,43.550 81.686,43.000 82.236 C 42.450 82.786,42.000 83.471,42.000 83.759 C 42.000 84.046,41.460 84.846,40.800 85.537 C 40.140 86.228,39.600 87.025,39.600 87.308 C 39.600 87.591,39.240 88.083,38.800 88.400 C 38.360 88.717,38.000 89.257,38.000 89.600 C 38.000 89.943,37.640 90.483,37.200 90.800 C 36.760 91.117,36.400 91.607,36.400 91.888 C 36.400 92.170,36.250 92.400,36.068 92.400 C 35.885 92.400,35.480 92.895,35.168 93.500 C 34.855 94.105,34.285 94.949,33.900 95.375 C 33.515 95.802,33.200 96.387,33.200 96.675 C 33.200 96.964,33.020 97.200,32.800 97.200 C 32.580 97.200,32.400 97.520,32.400 97.912 C 32.400 98.303,32.040 98.883,31.600 99.200 C 31.160 99.517,30.800 100.097,30.800 100.488 C 30.800 100.880,30.620 101.200,30.400 101.200 C 30.180 101.200,30.000 101.560,30.000 102.000 C 30.000 102.440,29.820 102.800,29.600 102.800 C 29.380 102.800,29.200 103.120,29.200 103.512 C 29.200 103.903,28.840 104.483,28.400 104.800 C 27.960 105.117,27.600 105.697,27.600 106.088 C 27.600 106.480,27.420 106.800,27.200 106.800 C 26.980 106.800,26.800 107.145,26.800 107.567 C 26.800 107.988,26.665 108.393,26.500 108.467 C 26.089 108.649,24.800 111.490,24.800 112.214 C 24.800 112.536,24.620 112.800,24.400 112.800 C 24.180 112.800,24.000 113.160,24.000 113.600 C 24.000 114.040,23.820 114.400,23.600 114.400 C 23.380 114.400,23.200 114.760,23.200 115.200 C 23.200 115.640,23.020 116.000,22.800 116.000 C 22.580 116.000,22.400 116.360,22.400 116.800 C 22.400 117.240,22.220 117.600,22.000 117.600 C 21.780 117.600,21.600 117.960,21.600 118.400 C 21.600 118.840,21.420 119.200,21.200 119.200 C 20.980 119.200,20.800 119.740,20.800 120.400 C 20.800 121.060,20.620 121.600,20.400 121.600 C 20.180 121.600,20.000 121.960,20.000 122.400 C 20.000 122.840,19.820 123.200,19.600 123.200 C 19.380 123.200,19.200 123.560,19.200 124.000 C 19.200 124.440,19.020 124.800,18.800 124.800 C 18.580 124.800,18.400 125.250,18.400 125.800 C 18.400 126.350,18.220 126.800,18.000 126.800 C 17.780 126.800,17.600 127.160,17.600 127.600 C 17.600 128.040,17.420 128.400,17.200 128.400 C 16.980 128.400,16.800 128.940,16.800 129.600 C 16.800 130.260,16.620 130.800,16.400 130.800 C 16.180 130.800,16.000 131.239,16.000 131.776 C 16.000 132.313,15.820 132.864,15.600 133.000 C 15.380 133.136,15.200 133.597,15.200 134.024 C 15.200 134.451,15.020 134.800,14.800 134.800 C 14.580 134.800,14.400 135.340,14.400 136.000 C 14.400 136.660,14.220 137.200,14.000 137.200 C 13.780 137.200,13.600 137.740,13.600 138.400 C 13.600 139.060,13.420 139.600,13.200 139.600 C 12.980 139.600,12.800 140.129,12.800 140.776 C 12.800 141.423,12.620 142.064,12.400 142.200 C 12.180 142.336,12.000 142.966,12.000 143.600 C 12.000 144.234,11.820 144.864,11.600 145.000 C 11.380 145.136,11.200 145.676,11.200 146.200 C 11.200 146.724,11.020 147.264,10.800 147.400 C 10.580 147.536,10.400 148.256,10.400 149.000 C 10.400 149.744,10.220 150.464,10.000 150.600 C 9.780 150.736,9.600 151.388,9.600 152.050 C 9.600 152.711,9.423 153.584,9.206 153.988 C 8.990 154.393,8.694 156.001,8.549 157.562 C 8.404 159.123,8.131 160.400,7.943 160.400 C 7.754 160.400,7.600 161.300,7.600 162.400 C 7.600 163.500,7.420 164.400,7.200 164.400 C 6.978 164.400,6.800 165.467,6.800 166.800 C 6.800 168.133,6.622 169.200,6.400 169.200 C 6.171 169.200,6.000 170.400,6.000 172.000 C 6.000 173.600,5.829 174.800,5.600 174.800 C 5.365 174.800,5.200 176.192,5.200 178.176 C 5.200 180.033,5.020 181.664,4.800 181.800 C 4.251 182.139,4.251 217.061,4.800 217.400 C 5.020 217.536,5.200 219.167,5.200 221.024 C 5.200 223.008,5.365 224.400,5.600 224.400 C 5.829 224.400,6.000 225.600,6.000 227.200 C 6.000 228.800,6.171 230.000,6.400 230.000 C 6.622 230.000,6.800 231.067,6.800 232.400 C 6.800 233.733,6.978 234.800,7.200 234.800 C 7.420 234.800,7.600 235.700,7.600 236.800 C 7.600 237.900,7.754 238.800,7.943 238.800 C 8.131 238.800,8.404 240.077,8.549 241.638 C 8.694 243.199,8.990 244.807,9.206 245.212 C 9.423 245.616,9.600 246.489,9.600 247.150 C 9.600 247.812,9.780 248.464,10.000 248.600 C 10.220 248.736,10.400 249.456,10.400 250.200 C 10.400 250.944,10.580 251.664,10.800 251.800 C 11.020 251.936,11.200 252.577,11.200 253.224 C 11.200 253.871,11.380 254.400,11.600 254.400 C 11.820 254.400,12.000 254.929,12.000 255.576 C 12.000 256.223,12.180 256.864,12.400 257.000 C 12.620 257.136,12.800 257.777,12.800 258.424 C 12.800 259.071,12.980 259.600,13.200 259.600 C 13.420 259.600,13.600 260.140,13.600 260.800 C 13.600 261.460,13.780 262.000,14.000 262.000 C 14.220 262.000,14.400 262.540,14.400 263.200 C 14.400 263.860,14.580 264.400,14.800 264.400 C 15.020 264.400,15.200 264.749,15.200 265.176 C 15.200 265.603,15.380 266.064,15.600 266.200 C 15.820 266.336,16.000 266.887,16.000 267.424 C 16.000 267.961,16.180 268.400,16.400 268.400 C 16.620 268.400,16.800 268.940,16.800 269.600 C 16.800 270.260,16.980 270.800,17.200 270.800 C 17.420 270.800,17.600 271.160,17.600 271.600 C 17.600 272.040,17.780 272.400,18.000 272.400 C 18.220 272.400,18.400 272.724,18.400 273.120 C 18.400 274.014,19.294 275.993,19.700 275.997 C 19.865 275.999,20.000 276.360,20.000 276.800 C 20.000 277.240,20.180 277.600,20.400 277.600 C 20.620 277.600,20.800 278.140,20.800 278.800 C 20.800 279.460,20.980 280.000,21.200 280.000 C 21.420 280.000,21.600 280.360,21.600 280.800 C 21.600 281.240,21.780 281.600,22.000 281.600 C 22.220 281.600,22.400 281.960,22.400 282.400 C 22.400 282.840,22.580 283.200,22.800 283.200 C 23.020 283.200,23.200 283.560,23.200 284.000 C 23.200 284.440,23.380 284.800,23.600 284.800 C 23.820 284.800,24.000 285.160,24.000 285.600 C 24.000 286.040,24.180 286.400,24.400 286.400 C 24.620 286.400,24.800 286.665,24.800 286.989 C 24.800 287.728,26.857 292.153,27.284 292.333 C 27.458 292.407,27.600 292.772,27.600 293.145 C 27.600 293.518,27.960 294.083,28.400 294.400 C 28.840 294.717,29.200 295.297,29.200 295.688 C 29.200 296.080,29.380 296.400,29.600 296.400 C 29.820 296.400,30.000 296.760,30.000 297.200 C 30.000 297.640,30.180 298.000,30.400 298.000 C 30.620 298.000,30.800 298.320,30.800 298.712 C 30.800 299.103,31.160 299.683,31.600 300.000 C 32.040 300.317,32.400 300.897,32.400 301.288 C 32.400 301.680,32.580 302.000,32.800 302.000 C 33.020 302.000,33.200 302.236,33.200 302.525 C 33.200 302.813,33.560 303.436,34.000 303.908 C 34.440 304.380,34.800 305.004,34.800 305.295 C 34.800 305.586,35.160 306.083,35.600 306.400 C 36.040 306.717,36.400 307.205,36.400 307.485 C 36.400 307.764,36.760 308.218,37.200 308.493 C 37.640 308.768,38.000 309.269,38.000 309.608 C 38.000 309.946,38.360 310.483,38.800 310.800 C 39.240 311.117,39.600 311.609,39.600 311.892 C 39.600 312.175,40.140 312.972,40.800 313.663 C 41.460 314.354,42.000 315.154,42.000 315.441 C 42.000 315.729,42.450 316.414,43.000 316.964 C 43.550 317.514,44.000 318.130,44.000 318.334 C 44.000 318.537,44.720 319.445,45.600 320.352 C 46.480 321.259,47.201 322.136,47.202 322.300 C 47.204 322.690,49.255 324.832,50.349 325.588 C 50.817 325.912,51.200 326.409,51.200 326.693 C 51.200 327.626,70.692 347.200,71.620 347.200 C 71.858 347.200,72.929 348.100,74.000 349.200 C 75.071 350.300,76.050 351.200,76.174 351.200 C 76.298 351.200,77.141 351.920,78.048 352.800 C 78.955 353.680,79.856 354.400,80.052 354.400 C 80.247 354.400,80.972 354.940,81.663 355.600 C 82.354 356.260,83.162 356.800,83.459 356.800 C 83.757 356.800,84.000 356.959,84.000 357.154 C 84.000 357.349,84.675 357.827,85.500 358.216 C 86.325 358.606,87.291 359.256,87.647 359.662 C 88.003 360.068,88.548 360.400,88.859 360.400 C 89.169 360.400,89.683 360.760,90.000 361.200 C 90.317 361.640,90.857 362.000,91.200 362.000 C 91.543 362.000,92.083 362.360,92.400 362.800 C 92.717 363.240,93.207 363.600,93.488 363.600 C 93.770 363.600,94.000 363.780,94.000 364.000 C 94.000 364.220,94.320 364.400,94.712 364.400 C 95.103 364.400,95.683 364.760,96.000 365.200 C 96.317 365.640,96.814 366.000,97.105 366.000 C 97.396 366.000,98.020 366.360,98.492 366.800 C 98.964 367.240,99.587 367.600,99.875 367.600 C 100.164 367.600,100.400 367.780,100.400 368.000 C 100.400 368.220,100.760 368.400,101.200 368.400 C 101.640 368.400,102.000 368.580,102.000 368.800 C 102.000 369.020,102.278 369.200,102.617 369.200 C 102.956 369.200,103.620 369.560,104.092 370.000 C 104.564 370.440,105.187 370.800,105.475 370.800 C 105.764 370.800,106.000 370.980,106.000 371.200 C 106.000 371.420,106.345 371.600,106.767 371.600 C 107.188 371.600,107.593 371.741,107.667 371.914 C 107.865 372.381,113.753 375.200,114.530 375.200 C 114.898 375.200,115.200 375.380,115.200 375.600 C 115.200 375.820,115.560 376.000,116.000 376.000 C 116.440 376.000,116.800 376.180,116.800 376.400 C 116.800 376.620,117.149 376.800,117.576 376.800 C 118.003 376.800,118.464 376.980,118.600 377.200 C 118.736 377.420,119.287 377.600,119.824 377.600 C 120.361 377.600,120.800 377.780,120.800 378.000 C 120.800 378.220,121.160 378.400,121.600 378.400 C 122.040 378.400,122.400 378.580,122.400 378.800 C 122.400 379.020,122.760 379.200,123.200 379.200 C 123.640 379.200,124.000 379.380,124.000 379.600 C 124.000 379.820,124.450 380.000,125.000 380.000 C 125.550 380.000,126.000 380.180,126.000 380.400 C 126.000 380.620,126.349 380.800,126.776 380.800 C 127.203 380.800,127.664 380.980,127.800 381.200 C 127.936 381.420,128.487 381.600,129.024 381.600 C 129.561 381.600,130.000 381.780,130.000 382.000 C 130.000 382.220,130.540 382.400,131.200 382.400 C 131.860 382.400,132.400 382.580,132.400 382.800 C 132.400 383.020,132.940 383.200,133.600 383.200 C 134.260 383.200,134.800 383.380,134.800 383.600 C 134.800 383.820,135.149 384.000,135.576 384.000 C 136.003 384.000,136.464 384.180,136.600 384.400 C 136.736 384.620,137.366 384.800,138.000 384.800 C 138.634 384.800,139.264 384.980,139.400 385.200 C 139.536 385.420,140.177 385.600,140.824 385.600 C 141.471 385.600,142.000 385.780,142.000 386.000 C 142.000 386.220,142.439 386.400,142.976 386.400 C 143.513 386.400,144.064 386.580,144.200 386.800 C 144.336 387.020,145.067 387.200,145.824 387.200 C 146.581 387.200,147.200 387.380,147.200 387.600 C 147.200 387.820,147.729 388.000,148.376 388.000 C 149.023 388.000,149.664 388.180,149.800 388.400 C 149.936 388.620,150.656 388.800,151.400 388.800 C 152.144 388.800,152.864 388.980,153.000 389.200 C 153.136 389.420,154.047 389.600,155.024 389.600 C 156.001 389.600,156.800 389.780,156.800 390.000 C 156.800 390.220,157.442 390.400,158.226 390.400 C 159.011 390.400,159.973 390.571,160.364 390.781 C 160.756 390.990,162.724 391.286,164.738 391.438 C 166.752 391.590,168.400 391.869,168.400 392.057 C 168.400 392.246,169.649 392.400,171.176 392.400 C 172.703 392.400,174.064 392.580,174.200 392.800 C 174.336 393.020,176.057 393.200,178.024 393.200 C 180.141 393.200,181.600 393.363,181.600 393.600 C 181.600 393.861,187.733 394.000,199.200 394.000 C 210.667 394.000,216.800 393.861,216.800 393.600 C 216.800 393.363,218.267 393.200,220.400 393.200 C 222.533 393.200,224.000 393.037,224.000 392.800 C 224.000 392.572,225.178 392.400,226.733 392.400 C 228.237 392.400,229.600 392.265,229.763 392.100 C 229.926 391.935,231.891 391.580,234.130 391.310 C 240.462 390.549,241.600 390.343,241.600 389.958 C 241.600 389.761,242.399 389.600,243.376 389.600 C 244.353 389.600,245.264 389.420,245.400 389.200 C 245.536 388.980,246.256 388.800,247.000 388.800 C 247.744 388.800,248.464 388.620,248.600 388.400 C 248.736 388.180,249.377 388.000,250.024 388.000 C 250.671 388.000,251.200 387.820,251.200 387.600 C 251.200 387.380,251.920 387.200,252.800 387.200 C 253.680 387.200,254.400 387.020,254.400 386.800 C 254.400 386.580,254.839 386.400,255.376 386.400 C 255.913 386.400,256.464 386.220,256.600 386.000 C 256.736 385.780,257.276 385.600,257.800 385.600 C 258.324 385.600,258.864 385.420,259.000 385.200 C 259.136 384.980,259.766 384.800,260.400 384.800 C 261.034 384.800,261.664 384.620,261.800 384.400 C 261.936 384.180,262.397 384.000,262.824 384.000 C 263.251 384.000,263.600 383.820,263.600 383.600 C 263.600 383.380,264.140 383.200,264.800 383.200 C 265.460 383.200,266.000 383.020,266.000 382.800 C 266.000 382.580,266.540 382.400,267.200 382.400 C 267.860 382.400,268.400 382.220,268.400 382.000 C 268.400 381.780,268.839 381.600,269.376 381.600 C 269.913 381.600,270.464 381.420,270.600 381.200 C 270.736 380.980,271.197 380.800,271.624 380.800 C 272.051 380.800,272.400 380.620,272.400 380.400 C 272.400 380.180,272.850 380.000,273.400 380.000 C 273.950 380.000,274.400 379.820,274.400 379.600 C 274.400 379.380,274.760 379.200,275.200 379.200 C 275.640 379.200,276.000 379.020,276.000 378.800 C 276.000 378.580,276.360 378.400,276.800 378.400 C 277.240 378.400,277.600 378.220,277.600 378.000 C 277.600 377.780,278.039 377.600,278.576 377.600 C 279.113 377.600,279.664 377.420,279.800 377.200 C 279.936 376.980,280.397 376.800,280.824 376.800 C 281.251 376.800,281.600 376.620,281.600 376.400 C 281.600 376.180,281.960 376.000,282.400 376.000 C 282.840 376.000,283.200 375.820,283.200 375.600 C 283.200 375.380,283.504 375.200,283.876 375.200 C 284.495 375.200,291.936 371.723,292.400 371.217 C 292.510 371.097,293.095 370.744,293.700 370.432 C 294.305 370.120,294.800 369.715,294.800 369.532 C 294.800 369.350,295.160 369.200,295.600 369.200 C 296.040 369.200,296.400 369.020,296.400 368.800 C 296.400 368.580,296.760 368.400,297.200 368.400 C 297.640 368.400,298.000 368.220,298.000 368.000 C 298.000 367.780,298.236 367.600,298.525 367.600 C 298.813 367.600,299.436 367.240,299.908 366.800 C 300.380 366.360,301.004 366.000,301.295 366.000 C 301.586 366.000,302.083 365.640,302.400 365.200 C 302.717 364.760,303.297 364.400,303.688 364.400 C 304.080 364.400,304.400 364.220,304.400 364.000 C 304.400 363.780,304.636 363.600,304.925 363.600 C 305.213 363.600,305.836 363.240,306.308 362.800 C 306.780 362.360,307.353 362.000,307.580 362.000 C 307.807 362.000,308.218 361.640,308.493 361.200 C 308.768 360.760,309.227 360.400,309.514 360.400 C 309.801 360.400,310.486 359.950,311.036 359.400 C 311.586 358.850,312.348 358.400,312.730 358.400 C 313.111 358.400,313.683 358.040,314.000 357.600 C 314.317 357.160,314.780 356.800,315.029 356.800 C 315.278 356.800,316.046 356.260,316.737 355.600 C 317.428 354.940,318.153 354.400,318.348 354.400 C 318.544 354.400,319.445 353.680,320.352 352.800 C 321.259 351.920,322.136 351.199,322.300 351.198 C 322.690 351.196,324.832 349.145,325.588 348.051 C 325.912 347.583,326.410 347.200,326.694 347.200 C 327.711 347.200,347.200 327.711,347.200 326.694 C 347.200 326.410,347.588 325.912,348.062 325.588 C 349.242 324.783,351.200 322.757,351.200 322.341 C 351.200 322.154,351.920 321.259,352.800 320.352 C 353.680 319.445,354.400 318.544,354.400 318.348 C 354.400 318.153,354.940 317.428,355.600 316.737 C 356.260 316.046,356.800 315.320,356.800 315.122 C 356.800 314.925,357.250 314.314,357.800 313.764 C 358.350 313.214,358.800 312.452,358.800 312.070 C 358.800 311.689,359.160 311.117,359.600 310.800 C 360.040 310.483,360.400 309.946,360.400 309.608 C 360.400 309.269,360.760 308.768,361.200 308.493 C 361.640 308.218,362.000 307.764,362.000 307.485 C 362.000 307.205,362.360 306.717,362.800 306.400 C 363.240 306.083,363.600 305.586,363.600 305.295 C 363.600 305.004,363.960 304.380,364.400 303.908 C 364.840 303.436,365.200 302.813,365.200 302.525 C 365.200 302.236,365.380 302.000,365.600 302.000 C 365.820 302.000,366.000 301.680,366.000 301.288 C 366.000 300.897,366.360 300.317,366.800 300.000 C 367.240 299.683,367.600 299.103,367.600 298.712 C 367.600 298.320,367.780 298.000,368.000 298.000 C 368.220 298.000,368.400 297.640,368.400 297.200 C 368.400 296.760,368.580 296.400,368.800 296.400 C 369.020 296.400,369.200 296.080,369.200 295.688 C 369.200 295.297,369.560 294.717,370.000 294.400 C 370.440 294.083,370.800 293.518,370.800 293.145 C 370.800 292.772,370.941 292.407,371.113 292.333 C 371.586 292.132,375.200 284.653,375.200 283.876 C 375.200 283.504,375.380 283.200,375.600 283.200 C 375.820 283.200,376.000 282.840,376.000 282.400 C 376.000 281.960,376.180 281.600,376.400 281.600 C 376.620 281.600,376.800 281.240,376.800 280.800 C 376.800 280.360,376.980 280.000,377.200 280.000 C 377.420 280.000,377.600 279.460,377.600 278.800 C 377.600 278.140,377.780 277.600,378.000 277.600 C 378.220 277.600,378.400 277.240,378.400 276.800 C 378.400 276.360,378.535 275.999,378.700 275.997 C 379.106 275.993,380.000 274.014,380.000 273.120 C 380.000 272.724,380.180 272.400,380.400 272.400 C 380.620 272.400,380.800 272.040,380.800 271.600 C 380.800 271.160,380.980 270.800,381.200 270.800 C 381.420 270.800,381.600 270.260,381.600 269.600 C 381.600 268.940,381.780 268.400,382.000 268.400 C 382.220 268.400,382.400 267.961,382.400 267.424 C 382.400 266.887,382.580 266.336,382.800 266.200 C 383.020 266.064,383.200 265.603,383.200 265.176 C 383.200 264.749,383.380 264.400,383.600 264.400 C 383.820 264.400,384.000 263.860,384.000 263.200 C 384.000 262.540,384.180 262.000,384.400 262.000 C 384.620 262.000,384.800 261.460,384.800 260.800 C 384.800 260.140,384.980 259.600,385.200 259.600 C 385.420 259.600,385.600 259.060,385.600 258.400 C 385.600 257.740,385.780 257.200,386.000 257.200 C 386.220 257.200,386.400 256.570,386.400 255.800 C 386.400 255.030,386.580 254.400,386.800 254.400 C 387.020 254.400,387.200 253.871,387.200 253.224 C 387.200 252.577,387.380 251.936,387.600 251.800 C 387.820 251.664,388.000 250.933,388.000 250.176 C 388.000 249.419,388.180 248.800,388.400 248.800 C 388.620 248.800,388.800 248.080,388.800 247.200 C 388.800 246.320,388.980 245.600,389.200 245.600 C 389.420 245.600,389.600 244.891,389.600 244.024 C 389.600 243.157,389.780 242.336,390.000 242.200 C 390.220 242.064,390.400 241.279,390.400 240.456 C 390.400 239.633,390.569 238.789,390.777 238.580 C 390.984 238.371,391.279 236.355,391.434 234.100 C 391.588 231.845,391.869 230.000,392.057 230.000 C 392.246 230.000,392.400 228.740,392.400 227.200 C 392.400 225.600,392.571 224.400,392.800 224.400 C 393.035 224.400,393.200 223.000,393.200 221.000 C 393.200 219.000,393.365 217.600,393.600 217.600 C 394.150 217.600,394.150 182.140,393.600 181.800 C 393.380 181.664,393.200 180.033,393.200 178.176 C 393.200 176.192,393.035 174.800,392.800 174.800 C 392.571 174.800,392.400 173.600,392.400 172.000 C 392.400 170.460,392.246 169.200,392.057 169.200 C 391.869 169.200,391.588 167.355,391.434 165.100 C 391.279 162.845,390.984 160.829,390.777 160.620 C 390.569 160.411,390.400 159.567,390.400 158.744 C 390.400 157.921,390.220 157.136,390.000 157.000 C 389.780 156.864,389.600 156.043,389.600 155.176 C 389.600 154.309,389.420 153.600,389.200 153.600 C 388.980 153.600,388.800 152.880,388.800 152.000 C 388.800 151.120,388.620 150.400,388.400 150.400 C 388.180 150.400,388.000 149.781,388.000 149.024 C 388.000 148.267,387.820 147.536,387.600 147.400 C 387.380 147.264,387.200 146.623,387.200 145.976 C 387.200 145.329,387.020 144.800,386.800 144.800 C 386.580 144.800,386.400 144.170,386.400 143.400 C 386.400 142.630,386.220 142.000,386.000 142.000 C 385.780 142.000,385.600 141.460,385.600 140.800 C 385.600 140.140,385.420 139.600,385.200 139.600 C 384.980 139.600,384.800 139.060,384.800 138.400 C 384.800 137.740,384.620 137.200,384.400 137.200 C 384.180 137.200,384.000 136.660,384.000 136.000 C 384.000 135.340,383.820 134.800,383.600 134.800 C 383.380 134.800,383.200 134.451,383.200 134.024 C 383.200 133.597,383.020 133.136,382.800 133.000 C 382.580 132.864,382.400 132.313,382.400 131.776 C 382.400 131.239,382.220 130.800,382.000 130.800 C 381.780 130.800,381.600 130.260,381.600 129.600 C 381.600 128.940,381.420 128.400,381.200 128.400 C 380.980 128.400,380.800 128.040,380.800 127.600 C 380.800 127.160,380.620 126.800,380.400 126.800 C 380.180 126.800,380.000 126.350,380.000 125.800 C 380.000 125.250,379.820 124.800,379.600 124.800 C 379.380 124.800,379.200 124.440,379.200 124.000 C 379.200 123.560,379.020 123.200,378.800 123.200 C 378.580 123.200,378.400 122.840,378.400 122.400 C 378.400 121.960,378.220 121.600,378.000 121.600 C 377.780 121.600,377.600 121.060,377.600 120.400 C 377.600 119.740,377.420 119.200,377.200 119.200 C 376.980 119.200,376.800 118.840,376.800 118.400 C 376.800 117.960,376.620 117.600,376.400 117.600 C 376.180 117.600,376.000 117.240,376.000 116.800 C 376.000 116.360,375.820 116.000,375.600 116.000 C 375.380 116.000,375.200 115.698,375.200 115.330 C 375.200 114.553,372.381 108.665,371.914 108.467 C 371.741 108.393,371.600 107.988,371.600 107.567 C 371.600 107.145,371.420 106.800,371.200 106.800 C 370.980 106.800,370.800 106.480,370.800 106.088 C 370.800 105.697,370.440 105.117,370.000 104.800 C 369.560 104.483,369.200 103.903,369.200 103.512 C 369.200 103.120,369.020 102.800,368.800 102.800 C 368.580 102.800,368.400 102.440,368.400 102.000 C 368.400 101.560,368.220 101.200,368.000 101.200 C 367.780 101.200,367.600 100.880,367.600 100.488 C 367.600 100.097,367.240 99.517,366.800 99.200 C 366.360 98.883,366.000 98.303,366.000 97.912 C 366.000 97.520,365.820 97.200,365.600 97.200 C 365.380 97.200,365.200 96.964,365.200 96.675 C 365.200 96.387,364.840 95.764,364.400 95.292 C 363.960 94.820,363.600 94.196,363.600 93.905 C 363.600 93.614,363.240 93.117,362.800 92.800 C 362.360 92.483,362.000 92.033,362.000 91.800 C 362.000 91.567,361.640 91.117,361.200 90.800 C 360.760 90.483,360.400 89.943,360.400 89.600 C 360.400 89.257,360.040 88.717,359.600 88.400 C 359.160 88.083,358.800 87.511,358.800 87.130 C 358.800 86.748,358.350 85.986,357.800 85.436 C 357.250 84.886,356.800 84.275,356.800 84.078 C 356.800 83.880,356.260 83.154,355.600 82.463 C 354.940 81.772,354.400 81.047,354.400 80.852 C 354.400 80.656,353.680 79.755,352.800 78.848 C 351.920 77.941,351.200 77.073,351.200 76.920 C 351.200 76.766,350.300 75.796,349.200 74.763 C 348.100 73.730,347.200 72.683,347.200 72.437 C 347.200 71.485,327.649 52.000,326.694 52.000 C 326.409 52.000,325.912 51.617,325.588 51.149 C 324.832 50.055,322.690 48.004,322.300 48.002 C 322.136 48.001,321.259 47.280,320.352 46.400 C 319.445 45.520,318.537 44.800,318.334 44.800 C 318.130 44.800,317.545 44.381,317.034 43.870 C 316.522 43.358,315.540 42.707,314.852 42.421 C 314.163 42.136,313.600 41.745,313.600 41.551 C 313.600 41.358,313.312 41.200,312.960 41.200 C 312.609 41.200,311.817 40.660,311.200 40.000 C 310.583 39.340,309.835 38.800,309.536 38.800 C 309.237 38.800,308.768 38.440,308.493 38.000 C 308.218 37.560,307.807 37.200,307.580 37.200 C 307.353 37.200,306.780 36.840,306.308 36.400 C 305.836 35.960,305.213 35.600,304.925 35.600 C 304.636 35.600,304.400 35.420,304.400 35.200 C 304.400 34.980,304.080 34.800,303.688 34.800 C 303.297 34.800,302.717 34.440,302.400 34.000 C 302.083 33.560,301.586 33.200,301.295 33.200 C 301.004 33.200,300.380 32.840,299.908 32.400 C 299.436 31.960,298.813 31.600,298.525 31.600 C 298.236 31.600,298.000 31.420,298.000 31.200 C 298.000 30.980,297.640 30.800,297.200 30.800 C 296.760 30.800,296.400 30.620,296.400 30.400 C 296.400 30.180,296.040 30.000,295.600 30.000 C 295.160 30.000,294.800 29.850,294.800 29.668 C 294.800 29.485,294.305 29.080,293.700 28.768 C 293.095 28.456,292.510 28.100,292.400 27.977 C 292.000 27.528,285.993 24.800,285.405 24.800 C 285.072 24.800,284.800 24.620,284.800 24.400 C 284.800 24.180,284.440 24.000,284.000 24.000 C 283.560 24.000,283.200 23.820,283.200 23.600 C 283.200 23.380,282.840 23.200,282.400 23.200 C 281.960 23.200,281.600 23.020,281.600 22.800 C 281.600 22.580,281.251 22.400,280.824 22.400 C 280.397 22.400,279.936 22.220,279.800 22.000 C 279.664 21.780,279.113 21.600,278.576 21.600 C 278.039 21.600,277.600 21.420,277.600 21.200 C 277.600 20.980,277.240 20.800,276.800 20.800 C 276.360 20.800,276.000 20.620,276.000 20.400 C 276.000 20.180,275.640 20.000,275.200 20.000 C 274.760 20.000,274.400 19.820,274.400 19.600 C 274.400 19.380,273.950 19.200,273.400 19.200 C 272.850 19.200,272.400 19.020,272.400 18.800 C 272.400 18.580,272.051 18.400,271.624 18.400 C 271.197 18.400,270.736 18.220,270.600 18.000 C 270.464 17.780,269.913 17.600,269.376 17.600 C 268.839 17.600,268.400 17.420,268.400 17.200 C 268.400 16.980,267.860 16.800,267.200 16.800 C 266.540 16.800,266.000 16.620,266.000 16.400 C 266.000 16.180,265.460 16.000,264.800 16.000 C 264.140 16.000,263.600 15.820,263.600 15.600 C 263.600 15.380,263.251 15.200,262.824 15.200 C 262.397 15.200,261.936 15.020,261.800 14.800 C 261.664 14.580,261.034 14.400,260.400 14.400 C 259.766 14.400,259.136 14.220,259.000 14.000 C 258.864 13.780,258.324 13.600,257.800 13.600 C 257.276 13.600,256.736 13.420,256.600 13.200 C 256.464 12.980,255.924 12.800,255.400 12.800 C 254.876 12.800,254.336 12.620,254.200 12.400 C 254.064 12.180,253.333 12.000,252.576 12.000 C 251.819 12.000,251.200 11.820,251.200 11.600 C 251.200 11.380,250.671 11.200,250.024 11.200 C 249.377 11.200,248.736 11.020,248.600 10.800 C 248.464 10.580,247.744 10.400,247.000 10.400 C 246.256 10.400,245.536 10.220,245.400 10.000 C 245.264 9.780,244.368 9.600,243.410 9.600 C 242.451 9.600,241.607 9.424,241.533 9.209 C 241.460 8.994,239.819 8.697,237.886 8.549 C 235.954 8.401,234.278 8.127,234.163 7.940 C 234.047 7.753,233.074 7.600,232.000 7.600 C 230.926 7.600,229.936 7.420,229.800 7.200 C 229.664 6.980,228.404 6.800,227.000 6.800 C 225.596 6.800,224.336 6.620,224.200 6.400 C 224.064 6.180,222.343 6.000,220.376 6.000 C 218.259 6.000,216.800 5.837,216.800 5.600 C 216.800 5.339,210.667 5.200,199.200 5.200 C 187.733 5.200,181.600 5.339,181.600 5.600 M258.026 150.414 C 258.763 150.809,258.800 151.366,258.800 162.175 L 258.800 173.522 257.540 173.961 C 255.469 174.683,239.837 174.543,238.380 173.790 L 237.200 173.179 237.200 162.212 C 237.200 151.333,237.207 151.240,238.089 150.623 C 239.161 149.872,256.670 149.688,258.026 150.414 M161.367 150.643 C 162.446 151.057,162.311 173.406,161.226 173.986 C 159.806 174.746,142.003 174.527,141.131 173.738 C 140.032 172.743,140.002 151.471,141.100 150.832 C 141.853 150.393,160.269 150.221,161.367 150.643 M306.436 208.295 C 307.246 210.424,306.734 221.970,305.800 222.641 C 305.360 222.957,304.683 223.482,304.295 223.808 C 303.908 224.133,303.470 224.400,303.321 224.400 C 303.173 224.400,302.680 224.739,302.226 225.153 C 299.865 227.305,285.193 236.732,279.600 239.690 C 278.390 240.330,277.229 241.022,277.020 241.227 C 276.811 241.432,276.331 241.600,275.953 241.600 C 275.576 241.600,275.207 241.748,275.133 241.929 C 275.014 242.225,266.315 246.577,262.800 248.100 C 262.030 248.434,260.590 249.063,259.600 249.497 C 257.398 250.464,248.469 253.692,246.000 254.413 C 245.010 254.702,244.029 255.088,243.820 255.270 C 243.611 255.451,243.071 255.603,242.620 255.606 C 242.169 255.609,240.990 255.895,240.000 256.242 C 239.010 256.589,237.390 257.023,236.400 257.208 C 235.410 257.392,233.880 257.744,233.000 257.990 C 230.998 258.550,226.881 259.245,218.400 260.457 C 215.746 260.836,210.137 261.000,199.800 260.999 C 185.600 260.998,183.072 260.851,175.600 259.598 C 174.390 259.395,172.320 259.063,171.000 258.860 C 160.869 257.305,143.533 251.469,130.920 245.367 C 128.457 244.175,126.252 243.200,126.020 243.200 C 125.789 243.200,125.600 243.056,125.600 242.880 C 125.600 242.705,125.015 242.347,124.300 242.086 C 122.890 241.571,117.969 238.966,115.400 237.374 C 114.520 236.829,113.530 236.268,113.200 236.127 C 112.677 235.904,106.154 231.857,104.353 230.638 C 101.112 228.446,97.362 225.820,97.200 225.630 C 97.090 225.501,96.280 224.864,95.400 224.214 C 92.790 222.287,92.827 222.414,92.813 215.149 C 92.796 206.452,92.685 206.547,98.474 210.266 C 99.423 210.876,101.010 211.818,102.000 212.360 C 102.990 212.902,105.240 214.134,107.000 215.097 C 110.038 216.761,117.129 220.256,122.800 222.886 C 124.230 223.549,126.092 224.431,126.938 224.846 C 127.784 225.261,128.723 225.600,129.026 225.600 C 129.328 225.600,130.217 225.960,131.000 226.400 C 131.783 226.840,132.691 227.200,133.018 227.200 C 133.344 227.200,133.923 227.372,134.305 227.582 C 134.687 227.792,136.620 228.534,138.600 229.232 C 140.580 229.929,142.560 230.631,143.000 230.792 C 143.853 231.104,148.103 232.407,151.400 233.368 C 153.246 233.905,156.096 234.605,162.800 236.167 C 165.995 236.911,169.295 237.494,173.085 237.984 C 174.672 238.190,177.732 238.663,179.885 239.037 C 186.277 240.145,213.328 240.023,221.200 238.851 C 230.303 237.494,236.917 236.350,237.919 235.959 C 238.424 235.762,239.205 235.600,239.653 235.600 C 241.582 235.600,259.768 230.236,263.400 228.596 C 264.060 228.298,265.487 227.763,266.571 227.408 C 267.655 227.052,269.005 226.521,269.571 226.226 C 270.137 225.932,271.410 225.326,272.400 224.880 C 276.969 222.818,290.143 216.052,293.600 213.992 C 294.220 213.623,302.075 209.126,304.200 207.925 C 305.819 207.009,305.956 207.032,306.436 208.295 " stroke="none" fill="#040404" fill-rule="evenodd"></path><path id="path2" d="M238.089 150.623 C 237.207 151.240,237.200 151.333,237.200 162.212 L 237.200 173.179 238.380 173.790 C 239.706 174.475,255.878 174.654,257.400 174.000 C 257.878 173.795,254.304 173.645,248.533 173.628 C 243.216 173.613,238.581 173.491,238.233 173.357 C 237.677 173.144,237.600 171.779,237.600 162.147 L 237.600 151.180 238.626 150.790 C 240.481 150.085,257.435 150.292,258.171 151.029 C 258.517 151.374,258.800 151.471,258.800 151.243 C 258.800 149.841,240.008 149.279,238.089 150.623 M141.100 150.832 C 140.715 151.056,140.400 151.541,140.400 151.909 C 140.400 152.440,140.528 152.395,141.023 151.689 C 141.891 150.449,160.854 150.274,161.568 151.500 C 161.930 152.121,161.977 152.126,161.988 151.543 C 161.995 151.181,161.715 150.776,161.367 150.643 C 160.269 150.221,141.853 150.393,141.100 150.832 M140.492 164.438 C 140.374 175.494,139.203 174.400,151.158 174.400 C 160.253 174.400,162.008 174.187,161.994 173.086 C 161.990 172.782,161.846 172.825,161.609 173.200 C 161.065 174.062,141.974 174.332,141.273 173.488 C 140.971 173.124,140.777 170.043,140.700 164.369 L 140.583 155.800 140.492 164.438 M304.200 207.925 C 303.540 208.298,300.952 209.772,298.450 211.202 C 290.982 215.466,287.315 217.454,281.057 220.631 C 277.789 222.290,275.192 223.725,275.286 223.820 C 275.457 223.991,279.980 221.743,287.200 217.899 C 292.381 215.140,294.088 214.196,298.500 211.650 C 304.329 208.286,305.685 207.605,306.076 207.847 C 306.348 208.015,306.412 207.943,306.238 207.662 C 305.874 207.072,305.659 207.099,304.200 207.925 M93.211 208.187 C 92.943 208.509,92.817 209.004,92.931 209.287 C 93.060 209.609,93.149 209.540,93.168 209.100 C 93.197 208.462,93.660 208.211,94.530 208.363 C 94.711 208.394,94.745 208.235,94.606 208.010 C 94.253 207.439,93.782 207.498,93.211 208.187 M95.358 208.700 C 95.919 209.277,99.842 211.584,104.800 214.252 C 107.550 215.732,110.430 217.323,111.200 217.788 C 113.598 219.237,122.800 223.374,122.800 223.004 C 122.800 222.890,121.855 222.393,120.700 221.900 C 117.912 220.708,110.978 217.263,107.000 215.092 C 105.240 214.131,102.990 212.904,102.000 212.364 C 101.010 211.824,99.162 210.711,97.892 209.891 C 95.739 208.500,94.680 208.002,95.358 208.700 M306.562 215.000 C 306.562 218.520,306.624 219.906,306.698 218.081 C 306.772 216.256,306.772 213.376,306.697 211.681 C 306.622 209.986,306.561 211.480,306.562 215.000 M92.944 216.400 C 92.944 218.490,93.012 219.345,93.094 218.300 C 93.176 217.255,93.176 215.545,93.094 214.500 C 93.012 213.455,92.944 214.310,92.944 216.400 M92.838 221.200 C 92.821 222.024,93.517 222.831,95.400 224.170 L 97.000 225.307 95.264 223.790 C 94.309 222.956,93.375 221.897,93.189 221.437 C 92.986 220.935,92.846 220.840,92.838 221.200 M305.840 221.936 C 305.141 223.066,289.656 233.499,282.906 237.388 C 280.655 238.685,278.879 239.812,278.959 239.893 C 279.429 240.362,299.465 227.669,302.226 225.153 C 302.680 224.739,303.173 224.400,303.321 224.400 C 303.470 224.400,303.908 224.133,304.295 223.808 C 304.683 223.482,305.360 222.956,305.799 222.640 C 306.239 222.324,306.482 221.949,306.339 221.806 C 306.197 221.663,305.972 221.722,305.840 221.936 M272.670 224.679 C 272.048 225.005,271.626 225.359,271.732 225.465 C 271.838 225.571,272.616 225.293,273.462 224.847 C 274.308 224.400,274.730 224.046,274.400 224.060 C 274.070 224.074,273.291 224.352,272.670 224.679 M97.205 225.494 C 97.208 225.662,98.513 226.663,100.105 227.718 C 101.697 228.773,103.450 229.964,104.000 230.365 C 105.730 231.624,112.724 236.000,113.007 236.000 C 113.155 236.000,113.810 236.380,114.461 236.844 C 115.113 237.308,115.742 237.591,115.860 237.473 C 115.978 237.355,115.113 236.717,113.937 236.055 C 109.381 233.488,105.277 230.871,100.193 227.294 C 98.547 226.135,97.202 225.325,97.205 225.494 M129.960 226.416 C 130.927 226.855,131.794 227.140,131.884 227.049 C 132.130 226.804,129.580 225.599,128.839 225.609 C 128.487 225.614,128.992 225.977,129.960 226.416 M269.000 226.427 C 267.453 227.418,268.176 227.399,270.000 226.400 C 270.770 225.978,271.130 225.639,270.800 225.646 C 270.470 225.653,269.660 226.004,269.000 226.427 M265.319 227.762 C 264.615 228.018,263.895 228.379,263.719 228.564 C 263.355 228.947,264.828 228.548,266.600 227.783 C 268.087 227.142,267.070 227.124,265.319 227.762 M135.200 228.400 C 135.530 228.613,136.070 228.788,136.400 228.788 C 136.933 228.788,136.933 228.745,136.400 228.400 C 136.070 228.187,135.530 228.012,135.200 228.012 C 134.667 228.012,134.667 228.055,135.200 228.400 M259.600 230.000 C 259.067 230.345,259.067 230.388,259.600 230.388 C 259.930 230.388,260.470 230.213,260.800 230.000 C 261.333 229.655,261.333 229.612,260.800 229.612 C 260.470 229.612,259.930 229.787,259.600 230.000 M144.000 231.354 C 144.000 231.539,147.814 232.809,148.275 232.778 C 148.454 232.765,147.790 232.415,146.800 232.000 C 145.072 231.275,144.000 231.028,144.000 231.354 M253.600 231.826 C 252.830 232.128,251.120 232.678,249.800 233.049 C 248.480 233.420,247.580 233.784,247.800 233.858 C 248.020 233.932,250.090 233.381,252.400 232.636 C 254.710 231.890,256.240 231.279,255.800 231.279 C 255.360 231.278,254.370 231.525,253.600 231.826 M151.000 233.600 C 152.100 234.006,153.360 234.342,153.800 234.347 C 154.240 234.353,153.520 234.009,152.200 233.584 C 149.170 232.609,148.344 232.620,151.000 233.600 M243.200 234.800 C 240.268 235.762,241.103 235.770,244.600 234.814 C 246.140 234.393,246.950 234.055,246.400 234.063 C 245.850 234.072,244.410 234.403,243.200 234.800 M155.800 234.800 C 156.240 234.989,156.870 235.144,157.200 235.144 C 157.578 235.144,157.504 235.017,157.000 234.800 C 156.560 234.611,155.930 234.456,155.600 234.456 C 155.222 234.456,155.296 234.583,155.800 234.800 M158.600 235.590 C 159.364 235.928,161.914 236.157,161.567 235.856 C 161.475 235.776,160.590 235.604,159.600 235.473 C 158.398 235.314,158.066 235.353,158.600 235.590 M237.600 236.026 C 237.050 236.213,234.800 236.729,232.600 237.173 C 230.400 237.617,229.320 237.893,230.200 237.788 C 234.125 237.316,241.432 235.681,239.600 235.683 C 239.050 235.684,238.150 235.838,237.600 236.026 M162.400 236.394 C 162.730 236.611,163.435 236.791,163.967 236.794 C 165.251 236.802,164.925 236.575,163.200 236.258 C 162.215 236.077,161.978 236.118,162.400 236.394 M167.233 237.344 C 167.325 237.424,168.210 237.596,169.200 237.727 C 170.402 237.886,170.734 237.847,170.200 237.610 C 169.436 237.272,166.886 237.043,167.233 237.344 M116.800 238.125 C 117.481 238.800,124.779 242.555,124.991 242.340 C 125.067 242.263,123.121 241.149,120.665 239.865 C 118.209 238.581,116.470 237.798,116.800 238.125 M172.000 238.256 C 172.550 238.337,174.940 238.698,177.311 239.057 C 179.682 239.417,181.711 239.622,181.821 239.513 C 182.085 239.248,173.730 237.980,172.200 238.052 C 171.154 238.102,171.128 238.128,172.000 238.256 M223.600 238.400 C 221.548 238.832,223.855 238.846,226.600 238.418 L 228.600 238.107 226.800 238.106 C 225.810 238.106,224.370 238.238,223.600 238.400 M218.400 239.200 L 217.000 239.495 218.400 239.500 C 219.170 239.503,220.340 239.368,221.000 239.200 L 222.200 238.895 221.000 238.900 C 220.340 238.903,219.170 239.038,218.400 239.200 M192.111 240.124 C 196.902 240.312,203.652 240.316,207.111 240.133 C 212.488 239.848,211.225 239.799,198.400 239.791 C 183.649 239.783,183.544 239.788,192.111 240.124 M276.800 240.800 C 276.030 241.222,275.670 241.570,276.000 241.574 C 276.330 241.579,277.050 241.230,277.600 240.800 C 278.857 239.817,278.596 239.817,276.800 240.800 M127.200 243.446 C 127.200 244.286,151.699 254.435,152.292 253.841 C 152.381 253.752,151.767 253.459,150.927 253.188 C 146.723 251.835,137.629 248.118,131.300 245.165 C 129.045 244.113,127.200 243.339,127.200 243.446 M270.114 244.286 C 268.967 244.877,268.093 245.426,268.173 245.506 C 268.336 245.669,272.400 243.604,272.400 243.358 C 272.400 243.114,272.337 243.140,270.114 244.286 M264.800 246.800 C 263.590 247.439,262.780 247.962,263.000 247.962 C 263.220 247.962,264.390 247.439,265.600 246.800 C 266.810 246.161,267.620 245.638,267.400 245.638 C 267.180 245.638,266.010 246.161,264.800 246.800 M257.096 250.087 C 255.389 250.768,254.062 251.396,254.148 251.481 C 254.339 251.672,259.657 249.609,260.180 249.140 C 260.722 248.655,260.549 248.708,257.096 250.087 M153.400 254.400 C 154.596 254.914,155.595 254.914,154.800 254.400 C 154.470 254.187,153.840 254.022,153.400 254.034 L 152.600 254.056 153.400 254.400 M244.800 254.400 C 244.267 254.745,244.267 254.788,244.800 254.788 C 245.130 254.788,245.670 254.613,246.000 254.400 C 246.533 254.055,246.533 254.012,246.000 254.012 C 245.670 254.012,245.130 254.187,244.800 254.400 M156.000 255.200 C 156.330 255.413,156.960 255.578,157.400 255.566 L 158.200 255.544 157.400 255.200 C 156.204 254.686,155.205 254.686,156.000 255.200 M158.433 255.744 C 158.525 255.823,159.140 256.008,159.800 256.156 C 160.676 256.352,160.838 256.315,160.400 256.018 C 159.860 255.653,158.032 255.398,158.433 255.744 M239.600 256.000 C 239.067 256.345,239.067 256.388,239.600 256.388 C 239.930 256.388,240.470 256.213,240.800 256.000 C 241.333 255.655,241.333 255.612,240.800 255.612 C 240.470 255.612,239.930 255.787,239.600 256.000 M161.600 256.800 C 161.930 257.013,162.560 257.178,163.000 257.166 L 163.800 257.144 163.000 256.800 C 161.804 256.286,160.805 256.286,161.600 256.800 M236.600 256.800 L 235.800 257.144 236.600 257.144 C 237.040 257.144,237.760 256.989,238.200 256.800 L 239.000 256.456 238.200 256.456 C 237.760 256.456,237.040 256.611,236.600 256.800 M165.400 257.600 C 166.596 258.114,167.595 258.114,166.800 257.600 C 166.470 257.387,165.840 257.222,165.400 257.234 L 164.600 257.256 165.400 257.600 M168.400 258.400 C 168.950 258.576,170.030 258.717,170.800 258.714 L 172.200 258.708 170.600 258.377 C 168.463 257.935,166.996 257.950,168.400 258.400 M229.200 258.400 L 227.800 258.695 229.200 258.719 C 229.970 258.733,230.960 258.589,231.400 258.400 L 232.200 258.056 231.400 258.081 C 230.960 258.094,229.970 258.238,229.200 258.400 M173.200 259.200 C 173.530 259.413,174.250 259.573,174.800 259.554 L 175.800 259.520 174.800 259.200 C 173.258 258.706,172.436 258.706,173.200 259.200 M225.400 259.200 L 224.600 259.544 225.400 259.566 C 225.840 259.578,226.470 259.413,226.800 259.200 C 227.595 258.686,226.596 258.686,225.400 259.200 M178.000 260.000 C 178.550 260.176,179.810 260.316,180.800 260.310 L 182.600 260.300 180.800 259.980 C 179.810 259.803,178.550 259.664,178.000 259.670 L 177.000 259.680 178.000 260.000 M219.000 260.000 L 217.400 260.286 219.000 260.303 C 219.880 260.313,221.050 260.176,221.600 260.000 L 222.600 259.680 221.600 259.697 C 221.050 259.706,219.880 259.842,219.000 260.000 M184.200 260.802 C 185.402 261.106,191.480 261.327,191.167 261.056 C 191.075 260.976,189.200 260.819,187.000 260.705 C 184.800 260.592,183.540 260.635,184.200 260.802 M211.400 260.800 L 208.600 261.059 211.200 261.106 C 212.630 261.132,214.520 261.005,215.400 260.823 L 217.000 260.492 215.600 260.517 C 214.830 260.530,212.940 260.658,211.400 260.800 " stroke="none" fill="#535353" fill-rule="evenodd"></path><path id="path3" d="M243.700 150.699 C 246.285 150.768,250.515 150.768,253.100 150.699 C 255.685 150.629,253.570 150.572,248.400 150.572 C 243.230 150.572,241.115 150.629,243.700 150.699 M258.558 157.000 C 258.558 160.080,258.621 161.287,258.697 159.682 C 258.773 158.078,258.773 155.558,258.696 154.082 C 258.619 152.607,258.557 153.920,258.558 157.000 M161.773 161.600 C 161.773 166.990,161.830 169.195,161.899 166.500 C 161.968 163.805,161.968 159.395,161.899 156.700 C 161.830 154.005,161.773 156.210,161.773 161.600 M140.514 154.200 C 140.517 155.300,140.595 155.703,140.687 155.095 C 140.779 154.486,140.777 153.586,140.682 153.095 C 140.587 152.603,140.511 153.100,140.514 154.200 M92.909 211.200 C 92.909 212.190,92.987 212.595,93.082 212.100 C 93.178 211.605,93.178 210.795,93.082 210.300 C 92.987 209.805,92.909 210.210,92.909 211.200 M195.500 261.099 C 197.975 261.169,202.025 261.169,204.500 261.099 C 206.975 261.028,204.950 260.971,200.000 260.971 C 195.050 260.971,193.025 261.028,195.500 261.099 " stroke="none" fill="#7c7c7c" fill-rule="evenodd"></path><path id="path4" d="M141.192 151.410 C 140.914 151.745,140.797 152.131,140.934 152.267 C 141.070 152.403,141.295 152.219,141.433 151.857 C 141.758 151.012,160.285 150.845,161.120 151.680 C 161.441 152.001,161.600 152.015,161.600 151.723 C 161.600 150.561,142.144 150.263,141.192 151.410 M258.553 167.000 C 258.553 169.640,258.618 170.668,258.697 169.284 C 258.775 167.901,258.774 165.741,258.695 164.484 C 258.616 163.228,258.552 164.360,258.553 167.000 M237.625 172.051 C 237.569 173.498,238.448 173.618,248.250 173.500 L 257.800 173.385 248.087 173.292 C 238.428 173.201,238.372 173.195,238.012 172.300 C 237.768 171.691,237.643 171.610,237.625 172.051 M140.800 172.301 C 140.800 173.715,142.429 174.002,149.989 173.917 L 157.400 173.834 149.667 173.617 C 142.615 173.419,141.884 173.332,141.367 172.624 C 141.055 172.196,140.800 172.051,140.800 172.301 M303.800 208.800 C 302.236 209.836,302.792 209.837,304.490 208.801 C 305.211 208.362,305.620 208.004,305.400 208.004 C 305.180 208.005,304.460 208.363,303.800 208.800 M306.090 214.610 L 306.000 221.419 302.700 223.846 C 297.774 227.468,289.230 233.096,283.700 236.363 C 281.005 237.954,278.800 239.345,278.800 239.452 C 278.800 239.685,278.355 239.929,283.955 236.627 C 291.425 232.222,300.031 226.443,305.320 222.282 L 306.441 221.400 306.310 214.600 L 306.179 207.800 306.090 214.610 M93.467 208.667 C 93.320 208.813,93.203 209.128,93.206 209.367 C 93.209 209.605,93.379 209.536,93.583 209.213 C 93.900 208.713,94.191 208.760,95.577 209.539 C 97.535 210.640,97.748 210.404,95.853 209.233 C 94.433 208.355,93.904 208.229,93.467 208.667 M300.100 210.842 C 298.945 211.515,298.000 212.158,298.000 212.271 C 298.000 212.493,301.557 210.515,302.180 209.947 C 302.858 209.328,302.242 209.593,300.100 210.842 M98.200 211.007 C 98.640 211.366,99.360 211.835,99.800 212.051 L 100.600 212.444 99.800 211.793 C 99.360 211.434,98.640 210.965,98.200 210.749 L 97.400 210.356 98.200 211.007 M101.400 212.888 C 102.712 213.824,108.461 216.872,108.618 216.715 C 108.698 216.635,107.110 215.677,105.090 214.585 C 101.125 212.442,100.142 211.991,101.400 212.888 M292.400 215.261 C 291.190 215.946,286.420 218.459,281.800 220.844 C 277.180 223.229,273.538 225.185,273.706 225.190 C 274.516 225.216,294.800 214.609,294.800 214.160 C 294.800 213.909,294.727 213.942,292.400 215.261 M109.420 217.232 C 109.717 217.713,113.622 219.711,113.840 219.494 C 113.928 219.406,112.916 218.775,111.592 218.091 C 110.267 217.408,109.290 217.022,109.420 217.232 M114.400 219.810 C 114.400 220.131,118.902 222.031,119.128 221.805 C 119.241 221.692,119.236 221.600,119.116 221.600 C 118.997 221.600,117.887 221.152,116.650 220.605 C 115.412 220.058,114.400 219.700,114.400 219.810 M93.436 221.665 C 93.636 222.030,94.700 223.041,95.800 223.912 C 98.491 226.042,104.916 230.511,104.637 230.060 C 104.514 229.862,102.383 228.255,99.901 226.489 C 97.419 224.723,94.867 222.766,94.230 222.139 C 93.593 221.513,93.236 221.299,93.436 221.665 M121.420 223.131 C 121.898 223.547,127.503 226.008,127.904 225.977 C 128.223 225.953,121.634 222.800,121.263 222.800 C 121.141 222.800,121.211 222.949,121.420 223.131 M266.800 227.833 C 265.448 228.584,266.411 228.555,267.854 227.802 C 268.484 227.474,268.730 227.221,268.400 227.242 C 268.070 227.262,267.350 227.528,266.800 227.833 M132.430 227.738 C 132.925 228.288,141.630 231.303,141.911 231.022 C 142.001 230.932,141.473 230.682,140.738 230.467 C 140.002 230.252,138.140 229.594,136.600 229.005 C 133.320 227.750,132.111 227.383,132.430 227.738 M263.001 229.254 C 260.821 230.138,260.006 230.683,261.598 230.192 C 263.069 229.738,265.864 228.458,265.400 228.450 C 265.180 228.447,264.101 228.808,263.001 229.254 M146.000 232.568 C 148.301 233.435,152.058 234.475,152.238 234.296 C 152.330 234.204,151.279 233.811,149.903 233.424 C 148.526 233.036,146.987 232.558,146.481 232.360 C 145.976 232.162,145.346 232.009,145.081 232.021 C 144.817 232.032,145.230 232.278,146.000 232.568 M253.800 232.400 C 253.296 232.617,253.222 232.744,253.600 232.744 C 253.930 232.744,254.560 232.589,255.000 232.400 C 255.504 232.183,255.578 232.056,255.200 232.056 C 254.870 232.056,254.240 232.211,253.800 232.400 M109.200 232.953 C 109.200 233.247,117.380 238.086,120.056 239.375 C 122.895 240.742,121.963 240.126,116.400 236.960 C 113.870 235.520,111.215 233.980,110.500 233.538 C 109.785 233.096,109.200 232.833,109.200 232.953 M251.000 233.200 C 250.496 233.417,250.422 233.544,250.800 233.544 C 251.130 233.544,251.760 233.389,252.200 233.200 C 252.704 232.983,252.778 232.856,252.400 232.856 C 252.070 232.856,251.440 233.011,251.000 233.200 M155.200 235.214 C 156.630 235.631,158.070 235.964,158.400 235.955 C 158.730 235.946,157.830 235.593,156.400 235.171 C 154.970 234.749,153.530 234.415,153.200 234.430 C 152.870 234.445,153.770 234.798,155.200 235.214 M245.000 234.800 C 243.981 235.238,245.032 235.238,246.400 234.800 C 247.204 234.543,247.243 234.477,246.600 234.468 C 246.160 234.462,245.440 234.611,245.000 234.800 M242.000 235.600 C 241.196 235.857,241.157 235.923,241.800 235.932 C 242.240 235.938,242.960 235.789,243.400 235.600 C 244.419 235.162,243.368 235.162,242.000 235.600 M160.400 236.400 C 161.942 236.894,162.764 236.894,162.000 236.400 C 161.670 236.187,160.950 236.027,160.400 236.046 L 159.400 236.080 160.400 236.400 M238.400 236.400 C 237.867 236.745,237.867 236.788,238.400 236.788 C 238.730 236.788,239.270 236.613,239.600 236.400 C 240.133 236.055,240.133 236.012,239.600 236.012 C 239.270 236.012,238.730 236.187,238.400 236.400 M163.600 237.200 C 164.150 237.376,164.960 237.520,165.400 237.520 C 166.033 237.520,165.992 237.454,165.200 237.200 C 164.650 237.024,163.840 236.880,163.400 236.880 C 162.767 236.880,162.808 236.946,163.600 237.200 M234.600 237.200 C 233.530 237.472,233.508 237.505,234.400 237.505 C 234.950 237.505,235.940 237.368,236.600 237.200 C 237.670 236.928,237.692 236.895,236.800 236.895 C 236.250 236.895,235.260 237.032,234.600 237.200 M168.400 238.000 C 169.768 238.438,170.819 238.438,169.800 238.000 C 169.360 237.811,168.640 237.662,168.200 237.668 C 167.557 237.677,167.596 237.743,168.400 238.000 M230.200 238.000 C 229.111 238.277,229.093 238.307,230.000 238.325 C 230.550 238.335,231.360 238.189,231.800 238.000 C 232.786 237.576,231.866 237.576,230.200 238.000 M172.800 238.820 C 173.790 238.997,175.140 239.132,175.800 239.120 C 176.685 239.105,176.528 239.016,175.200 238.780 C 174.210 238.603,172.860 238.468,172.200 238.480 C 171.315 238.495,171.472 238.584,172.800 238.820 M224.400 238.800 L 222.600 239.080 224.400 239.100 C 225.390 239.111,226.650 238.976,227.200 238.800 L 228.200 238.480 227.200 238.500 C 226.650 238.511,225.390 238.646,224.400 238.800 M178.200 239.585 C 179.422 239.911,182.670 240.120,182.367 239.853 C 182.275 239.772,181.030 239.607,179.600 239.485 C 177.962 239.346,177.444 239.382,178.200 239.585 M218.800 239.600 L 216.600 239.870 218.600 239.895 C 219.700 239.909,221.050 239.776,221.600 239.600 C 222.828 239.207,222.009 239.207,218.800 239.600 M188.400 240.470 C 190.644 240.807,204.102 240.798,209.200 240.455 C 211.363 240.310,207.312 240.200,199.800 240.200 C 192.540 240.200,187.410 240.322,188.400 240.470 M123.011 240.934 C 123.896 241.532,125.200 242.058,125.200 241.817 C 125.200 241.637,122.798 240.400,122.450 240.400 C 122.324 240.400,122.577 240.640,123.011 240.934 M273.925 241.755 C 272.674 242.449,271.504 243.169,271.325 243.356 C 270.980 243.716,275.384 241.518,276.400 240.823 C 277.660 239.961,276.101 240.548,273.925 241.755 M268.072 244.672 C 266.902 245.225,266.029 245.762,266.132 245.866 C 266.236 245.969,267.373 245.510,268.660 244.846 C 271.484 243.389,271.055 243.262,268.072 244.672 M262.000 247.600 C 261.230 248.022,260.780 248.366,261.000 248.366 C 261.220 248.366,262.030 248.022,262.800 247.600 C 263.570 247.178,264.020 246.834,263.800 246.834 C 263.580 246.834,262.770 247.178,262.000 247.600 M140.800 249.200 C 141.570 249.622,142.380 249.966,142.600 249.966 C 142.820 249.966,142.370 249.622,141.600 249.200 C 140.830 248.778,140.020 248.434,139.800 248.434 C 139.580 248.434,140.030 248.778,140.800 249.200 M252.400 251.386 C 251.630 251.686,250.141 252.243,249.091 252.623 C 248.041 253.004,247.247 253.380,247.326 253.459 C 247.481 253.615,254.012 251.321,254.336 250.997 C 254.678 250.655,253.851 250.821,252.400 251.386 M151.400 253.218 C 152.500 253.648,153.580 253.989,153.800 253.977 C 154.401 253.944,150.694 252.445,150.000 252.441 C 149.670 252.439,150.300 252.789,151.400 253.218 M156.000 254.600 C 157.826 255.303,158.545 255.293,157.000 254.586 C 156.340 254.283,155.530 254.042,155.200 254.048 C 154.870 254.055,155.230 254.303,156.000 254.600 M243.000 254.614 C 242.000 255.096,241.966 255.151,242.800 254.948 C 243.933 254.671,245.207 254.021,244.600 254.030 C 244.380 254.033,243.660 254.296,243.000 254.614 M238.600 255.811 C 237.720 256.101,237.270 256.350,237.600 256.363 C 237.930 256.377,239.010 256.133,240.000 255.821 C 240.990 255.509,241.440 255.260,241.000 255.269 C 240.560 255.277,239.480 255.521,238.600 255.811 M233.000 257.200 C 231.981 257.638,233.032 257.638,234.400 257.200 C 235.204 256.943,235.243 256.877,234.600 256.868 C 234.160 256.862,233.440 257.011,233.000 257.200 M167.200 257.605 C 167.530 257.816,168.325 257.991,168.967 257.994 C 170.514 258.002,170.177 257.771,168.200 257.468 C 167.110 257.301,166.791 257.345,167.200 257.605 M228.800 258.020 C 228.126 258.249,228.451 258.284,229.800 258.128 C 230.900 258.001,231.875 257.831,231.967 257.749 C 232.282 257.468,229.799 257.680,228.800 258.020 M173.600 258.800 C 174.968 259.238,176.019 259.238,175.000 258.800 C 174.560 258.611,173.840 258.462,173.400 258.468 C 172.757 258.477,172.796 258.543,173.600 258.800 M224.990 258.816 C 224.821 259.089,225.123 259.138,225.866 258.960 C 227.399 258.592,227.544 258.400,226.290 258.400 C 225.717 258.400,225.132 258.587,224.990 258.816 M177.500 259.482 C 177.995 259.578,178.805 259.578,179.300 259.482 C 179.795 259.387,179.390 259.309,178.400 259.309 C 177.410 259.309,177.005 259.387,177.500 259.482 M218.200 259.606 C 217.497 259.788,218.242 259.828,220.000 259.703 C 221.650 259.585,223.075 259.424,223.167 259.344 C 223.475 259.078,219.413 259.291,218.200 259.606 M180.900 259.876 C 181.285 259.976,181.915 259.976,182.300 259.876 C 182.685 259.775,182.370 259.693,181.600 259.693 C 180.830 259.693,180.515 259.775,180.900 259.876 M184.800 260.402 C 186.632 260.747,190.270 260.922,189.967 260.651 C 189.875 260.570,188.270 260.404,186.400 260.283 C 183.930 260.124,183.492 260.157,184.800 260.402 M214.705 260.283 C 215.202 260.379,215.922 260.375,216.305 260.275 C 216.687 260.175,216.280 260.096,215.400 260.101 C 214.520 260.105,214.207 260.187,214.705 260.283 M210.500 260.687 C 211.105 260.778,212.095 260.778,212.700 260.687 C 213.305 260.595,212.810 260.520,211.600 260.520 C 210.390 260.520,209.895 260.595,210.500 260.687 " stroke="none" fill="#848484" fill-rule="evenodd"></path></g></svg>